<?xml version="1.0" encoding="UTF-8" standalone="no"?>
<!-- Created using Karbon, part of Calligra: http://www.calligra.org/karbon -->

<svg
   xmlns:dc="http://purl.org/dc/elements/1.1/"
   xmlns:cc="http://creativecommons.org/ns#"
   xmlns:rdf="http://www.w3.org/1999/02/22-rdf-syntax-ns#"
   xmlns:svg="http://www.w3.org/2000/svg"
   xmlns="http://www.w3.org/2000/svg"
   xmlns:xlink="http://www.w3.org/1999/xlink"
   xmlns:sodipodi="http://sodipodi.sourceforge.net/DTD/sodipodi-0.dtd"
   xmlns:inkscape="http://www.inkscape.org/namespaces/inkscape"
   width="595.277pt"
   height="841.891pt"
   id="svg2"
   version="1.1"
   inkscape:version="0.91 r13725"
   sodipodi:docname="OL_Icon.svg">
  <metadata
     id="metadata65">
    <rdf:RDF>
      <cc:Work
         rdf:about="">
        <dc:format>image/svg+xml</dc:format>
        <dc:type
           rdf:resource="http://purl.org/dc/dcmitype/StillImage" />
      </cc:Work>
    </rdf:RDF>
  </metadata>
  <sodipodi:namedview
     pagecolor="#ffffff"
     bordercolor="#666666"
     borderopacity="1"
     objecttolerance="10"
     gridtolerance="10"
     guidetolerance="10"
     inkscape:pageopacity="0"
     inkscape:pageshadow="2"
     inkscape:window-width="1058"
     inkscape:window-height="660"
     id="namedview63"
     showgrid="false"
     inkscape:zoom="0.63429476"
     inkscape:cx="343.83516"
     inkscape:cy="285.29235"
     inkscape:window-x="2603"
     inkscape:window-y="433"
     inkscape:window-maximized="0"
     inkscape:current-layer="layer1" />
  <defs
     id="defs4">
    <linearGradient
       id="linearGradient4254"
       gradientTransform="matrix(1.0000062,0,0,0.99999382,55.3137,288.798)"
       gradientUnits="userSpaceOnUse"
       x1="-312.49997"
       y1="957.92549"
       x2="533.55518"
       y2="84.383957"
       spreadMethod="pad">
      <stop
         stop-color="#000000"
         offset="0.41063353"
         stop-opacity="1.00000000000"
         id="stop4256" />
      <stop
         stop-color="#000000"
         offset="0.97702992"
         stop-opacity="0.00000000000"
         id="stop4258"
         style="stop-color:#ffffff;stop-opacity:1" />
    </linearGradient>
    <linearGradient
       spreadMethod="pad"
       y2="84.383957"
       x2="533.55518"
       y1="957.92549"
       x1="-312.49997"
       gradientUnits="userSpaceOnUse"
       gradientTransform="matrix(1.0000062,0,0,0.99999382,55.3137,288.798)"
       id="linearGradient4248">
      <stop
         id="stop4250"
         stop-opacity="1.00000000000"
         offset="0.41063353"
         stop-color="#000000" />
      <stop
         style="stop-color:#ffffff;stop-opacity:1"
         id="stop4252"
         stop-opacity="0.00000000000"
         offset="0.95013052"
         stop-color="#000000" />
    </linearGradient>
    <linearGradient
       id="linearGradient4242"
       gradientTransform="matrix(1.0000062,0,0,0.99999382,55.3137,288.798)"
       gradientUnits="userSpaceOnUse"
       x1="-312.49997"
       y1="957.92549"
       x2="533.55518"
       y2="84.383957"
       spreadMethod="pad">
      <stop
         stop-color="#000000"
         offset="0.41063353"
         stop-opacity="1.00000000000"
         id="stop4244" />
      <stop
         stop-color="#000000"
         offset="0.76342231"
         stop-opacity="0.00000000000"
         id="stop4246"
         style="stop-color:#ffffff;stop-opacity:1" />
    </linearGradient>
    <linearGradient
       spreadMethod="pad"
       y2="84.383957"
       x2="533.55518"
       y1="957.92549"
       x1="-312.49997"
       gradientUnits="userSpaceOnUse"
       gradientTransform="matrix(1.0000062,0,0,0.99999382,55.3137,288.798)"
       id="linearGradient4236">
      <stop
         id="stop4238"
         stop-opacity="1.00000000000"
         offset="0.41063353"
         stop-color="#000000" />
      <stop
         style="stop-color:#ffffff;stop-opacity:1"
         id="stop4240"
         stop-opacity="0.00000000000"
         offset="0.94769382"
         stop-color="#000000" />
    </linearGradient>
    <linearGradient
       id="linearGradient4230"
       gradientTransform="matrix(1.0000062,0,0,0.99999382,55.3137,288.798)"
       gradientUnits="userSpaceOnUse"
       x1="-312.49997"
       y1="957.92549"
       x2="533.55518"
       y2="84.383957"
       spreadMethod="pad">
      <stop
         stop-color="#000000"
         offset="0.41063353"
         stop-opacity="1.00000000000"
         id="stop4232" />
      <stop
         stop-color="#000000"
         offset="0.47822621"
         stop-opacity="0.00000000000"
         id="stop4234"
         style="stop-color:#ffffff;stop-opacity:1" />
    </linearGradient>
    <linearGradient
       spreadMethod="pad"
       y2="84.383957"
       x2="533.55518"
       y1="957.92549"
       x1="-312.49997"
       gradientUnits="userSpaceOnUse"
       gradientTransform="matrix(1.0000062,0,0,0.99999382,55.3137,288.798)"
       id="linearGradient4224">
      <stop
         id="stop4226"
         stop-opacity="1.00000000000"
         offset="0.00047604413"
         stop-color="#000000" />
      <stop
         style="stop-color:#ffffff;stop-opacity:1"
         id="stop4228"
         stop-opacity="0.00000000000"
         offset="0.99948525"
         stop-color="#000000" />
    </linearGradient>
    <linearGradient
       id="gradient0"
       gradientTransform="matrix(1.0000062,0,0,0.99999382,55.3137,288.798)"
       gradientUnits="userSpaceOnUse"
       x1="-312.49997"
       y1="957.92549"
       x2="533.55518"
       y2="84.383957"
       spreadMethod="pad">
      <stop
         stop-color="#000000"
         offset="0.00047604413"
         stop-opacity="1.00000000000"
         id="stop7" />
      <stop
         stop-color="#000000"
         offset="0.00000003"
         stop-opacity="0.00000000000"
         id="stop9"
         style="stop-color:#ffffff;stop-opacity:1" />
    </linearGradient>
    <filter
       style="color-interpolation-filters:sRGB;"
       inkscape:label="Drop Shadow"
       id="filter4446">
      <feFlood
         flood-opacity="0.498039"
         flood-color="rgb(0,0,0)"
         result="flood"
         id="feFlood4448" />
      <feComposite
         in="flood"
         in2="SourceGraphic"
         operator="in"
         result="composite1"
         id="feComposite4450" />
      <feGaussianBlur
         in="composite1"
         stdDeviation="9"
         result="blur"
         id="feGaussianBlur4452" />
      <feOffset
         dx="6"
         dy="6"
         result="offset"
         id="feOffset4454" />
      <feComposite
         in="SourceGraphic"
         in2="offset"
         operator="over"
         result="composite2"
         id="feComposite4456" />
    </filter>
    <linearGradient
       inkscape:collect="always"
       xlink:href="#linearGradient4254"
       id="linearGradient4214"
       x1="-438.77277"
       y1="1481.1071"
       x2="525.05139"
       y2="401.16736"
       gradientUnits="userSpaceOnUse" />
    <linearGradient
       inkscape:collect="always"
       xlink:href="#linearGradient4254"
       id="linearGradient4222"
       x1="-438.77277"
       y1="1481.1071"
       x2="525.05139"
       y2="401.16736"
       gradientUnits="userSpaceOnUse" />
  </defs>
  <g
     inkscape:groupmode="layer"
     id="layer1"
     inkscape:label="shape">
    <path
       inkscape:connector-curvature="0"
       style="fill:url(#linearGradient4222);fill-opacity:1.0;fill-rule:evenodd;stroke:url(#linearGradient4214);stroke-width:1.25;stroke-linecap:square;stroke-linejoin:miter;stroke-miterlimit:2;stroke-opacity:1"
       d="m 678.92071,621.88499 -0.107,-8.361 -0.321,-8.308 -0.531,-8.253 -0.739,-8.194 -0.945,-8.133 -1.147,-8.07 -1.347,-8.003 -1.545,-7.935 -1.74,-7.863 -1.932,-7.79 -2.121,-7.712 -2.309,-7.633 -2.492,-7.552 -2.675,-7.467 -2.853,-7.379 -3.03,-7.29 -3.204,-7.198 -3.375,-7.102 -3.543,-7.005 -3.71,-6.904 -3.873,-6.802 -4.033,-6.696 -4.192,-6.588 -4.347,-6.477 -4.499,-6.363 -4.65,-6.248 -4.798,-6.128 -4.942,-6.008 -5.085,-5.883 -5.225,-5.757 -5.361,-5.6282 -5.496,-5.496 -5.628,-5.3616 -5.757,-5.2245 -5.884,-5.0848 -6.007,-4.9425 -6.129,-4.7976 -6.248,-4.65 -6.363,-4.4998 -6.477,-4.347 -6.588,-4.1916 -6.696,-4.0334 -6.801,-3.8728 -6.905,-3.7095 -7.004,-3.5435 -7.103,-3.375 -7.197,-3.2037 -7.29,-3.0299 -7.38,-2.8535 -7.467,-2.6744 -7.551,-2.4927 -7.633,-2.3084 -7.713,-2.1214 -7.789,-1.93187 -7.864,-1.73964 -7.934,-1.54481 -8.004,-1.34736 -8.07,-1.14727 -8.133,-0.94457 -8.194,-0.73923 -8.253,-0.53128 -8.308,-0.32069 -8.361,-0.10748 -8.361,0.10748 -8.308,0.32069 -8.253,0.53128 -8.194,0.73923 -8.133,0.94457 -8.07,1.14727 -8.003,1.34736 -7.935,1.54481 -7.863,1.73964 -7.79,1.93187 -7.712,2.1214 -7.633,2.3084 -7.552,2.4927 -7.467,2.6744 -7.379,2.8535 -7.29,3.0299 -7.198,3.2037 -7.102,3.375 -7.005,3.5435 -6.904,3.7095 -6.802,3.8728 -6.696,4.0334 -6.588,4.1916 -6.477,4.347 -6.363,4.4998 -6.248,4.65 -6.128,4.7976 -6.008,4.9425 -5.883,5.0848 -5.757,5.2245 -5.6282,5.3616 -5.496,5.496 -5.3616,5.6282 -5.2245,5.757 -5.0848,5.883 -4.9425,6.008 -4.7976,6.128 -4.65,6.248 -4.499798,6.363 -4.347,6.477 -4.1916,6.588 -4.0334,6.696 -3.8728,6.802 -3.7095,6.904 -3.5435,7.005 -3.375,7.102 -3.2037,7.198 -3.0299,7.29 -2.8535,7.379 -2.6744,7.467 -2.4927,7.552 -2.3084,7.633 -2.1214,7.712 -1.93187,7.79 -1.73964,7.863 -1.54481,7.935 -1.34736,8.003 -1.14727,8.07 -0.94457,8.133 -0.73923,8.194 -0.53128,8.253 -0.32069,8.308 -0.10748,8.361 0,318.898 318.897998,0 8.361,-0.107 8.308,-0.321 8.253,-0.531 8.194,-0.739 8.133,-0.945 8.07,-1.147 8.004,-1.347 7.934,-1.545 7.864,-1.74 7.789,-1.932 7.713,-2.121 7.633,-2.309 7.551,-2.492 7.467,-2.675 7.38,-2.853 7.29,-3.03 7.197,-3.204 7.103,-3.375 7.004,-3.543 6.905,-3.71 6.801,-3.873 6.696,-4.033 6.588,-4.192 6.477,-4.347 6.363,-4.499 6.248,-4.65 6.129,-4.798 6.007,-4.942 5.884,-5.085 5.757,-5.225 5.628,-5.361 5.496,-5.496 5.361,-5.628 5.225,-5.757 5.085,-5.884 4.942,-6.007 4.798,-6.129 4.65,-6.248 4.499,-6.363 4.347,-6.477 4.192,-6.588 4.033,-6.696 3.873,-6.801 3.71,-6.905 3.543,-7.004 3.375,-7.103 3.204,-7.197 3.03,-7.29 2.853,-7.38 2.675,-7.467 2.492,-7.551 2.309,-7.633 2.121,-7.713 1.932,-7.789 1.74,-7.864 1.545,-7.934 1.347,-8.004 1.147,-8.07 0.945,-8.133 0.739,-8.194 0.531,-8.253 0.321,-8.308 0.107,-8.361"
       stroke-miterlimit="2.00000000000"
       id="shape2"
       inkscape:export-xdpi="12.11"
       inkscape:export-ydpi="12.11" />
  </g>
  <g
     inkscape:groupmode="layer"
     id="layer2"
     inkscape:label="Text">
    <g
       style="filter:url(#filter4446)"
       id="OL">
      <ellipse
         id="shape0"
         transform="translate(196.215, 407.838)"
         rx="80.89832084691pt"
         ry="126.37506053203pt"
         cx="80.89832084691pt"
         cy="126.37506053203pt"
         fill="none"
         stroke="#800000"
         stroke-opacity="0.56470588235"
         stroke-width="53.14969837500"
         stroke-linecap="square"
         stroke-linejoin="miter"
         stroke-miterlimit="1.98425540600" />
      <path
         id="shape1"
         transform="translate(338.219,531.895)"
         stroke-miterlimit="1.98425540600"
         d="m 0,0 c 0.380877,173.625 0.571316,259.04245 0.571316,259.40545 0,0.364 7.8827705,-0.39414 155.122794,-0.0574"
         inkscape:connector-curvature="0"
         style="fill:none;stroke:#000000;stroke-width:53.235;stroke-linecap:square;stroke-linejoin:miter;stroke-miterlimit:1.98425543;stroke-opacity:0.56470588;stroke-dasharray:none"
         sodipodi:nodetypes="csc" />
    </g>
  </g>
  <g
     inkscape:groupmode="layer"
     id="layer3"
     inkscape:label="TextRole">
    <g
       style=""
       id="layer0">
      <path
         id="shape3"
         transform="translate(107.407, 494.769)"
         fill="none"
         stroke="#000000"
         stroke-width="1.41732529000"
         d="M356.06 67.8758C377.683 67.5623 388.495 67.4056 388.495 67.4056C393.065 62.8351 398.278 51.4274 383.733 43.9399C369.188 36.4524 354.799 48.8312 354.747 59.2912C354.696 69.7511 358.248 80.8903 375.35 86.8629C392.452 92.8355 412.693 85.5341 417.263 56.9683C421.834 28.4025 396.498 18.5088 379.592 18.893C362.686 19.2772 342.685 29.5708 336.972 52.4235C331.259 75.2761 344.153 93.4514 362.827 103.123C381.501 112.795 408.778 108.836 427.06 93.8316C445.342 78.8268 445.643 50.5709 445.239 44.9498C444.431 33.7077 430.854 -13.5631 366.867 4.71903C302.879 23.0011 289.086 110.254 271.946 200.522C260.52 260.701 235.001 322.403 195.39 385.629L0 383.343C44.1818 334.972 78.0798 285.839 101.694 235.944C137.116 161.101 136.544 145.105 150.256 102.827C163.968 60.5498 173.68 41.1251 190.819 25.1282C207.959 9.13137 221.301 0.344865 238.805 0.1079C256.309 -0.129065 337.781 0.00833771 397.064 0.679216" />
      <path
         id="shape4"
         transform="translate(398.778, 603.31)"
         fill="none"
         stroke="#000000"
         stroke-width="1.41732529000"
         stroke-linecap="square"
         stroke-linejoin="miter"
         stroke-miterlimit="0.00000000000"
         d="M94.6847 0L0 0" />
      <path
         id="shape5"
         transform="translate(452.56, 583.429)"
         fill="none"
         stroke="#000000"
         stroke-width="1.41732529000"
         stroke-linecap="square"
         stroke-linejoin="miter"
         stroke-miterlimit="0.00000000000"
         d="M41.5271 0.100995L0 0" />
      <path
         id="shape6"
         transform="matrix(1 0 0 -1 446.5 513.613)"
         fill="none"
         stroke="#000000"
         stroke-width="1.41732529000"
         stroke-linecap="square"
         stroke-linejoin="miter"
         stroke-miterlimit="0.00000000000"
         d="M42.546 0L0 0.100995" />
      <path
         id="shape7"
         transform="translate(160.926, 812.822)"
         fill="#000000"
         d="M3.67015 32.0969C2.44677 29.9779 1.22338 27.859 0 25.74C3.38285 24.1176 6.55612 22.0693 10.0415 20.6383C17.2004 17.6992 24.2201 15.0387 28.8596 8.35484C29.9788 6.74241 31.3618 4.41348 32.2512 2.93117C32.2799 2.8834 33.9244 0.53279 33.7814 0L41.1269 12.7227C40.3274 13.2391 39.7856 14.4826 39.2956 15.2571C38.0102 17.2887 36.7911 19.3598 35.5482 21.4172C29.488 31.4484 21.4609 40.3067 15.9191 50.5984L8.58748 37.8998C9.93514 35.8789 11.0021 33.6834 12.358 31.6627C15.6823 26.7085 21.2741 22.3505 26.1622 18.8302C27.7268 17.7033 30.2534 15.3308 31.2898 17.8513L38.5637 30.45C38.888 32.2916 39.1391 34.1798 39.8054 35.9348L32.4976 23.2772C33.1586 23.8891 33.9543 23.0174 34.4154 22.5881C35.9364 21.1719 37.1137 19.5336 38.4076 17.9226C38.9775 17.213 40.0078 15.4474 40.2126 17.0345L47.5204 29.692C47.4478 30.2393 47.4553 30.7368 47.5897 31.2734L40.2781 18.6094C41.0618 19.1093 42.6983 18.3046 43.5131 18.2719C45.0186 18.2114 45.7015 20.1302 47.3366 19.3328C48.3908 18.8187 51.3315 16.4669 52.5988 17.1617C53.5761 17.6976 54.9977 20.296 56.2593 20.0172C57.8652 19.6623 61.0113 17.7099 62.5117 18.1834C63.8548 18.6074 64.7941 19.7748 66.0373 20.3897C67.8232 21.2729 69.8843 19.5284 71.7347 19.6619C73.1804 19.7663 73.8359 21.2949 75.2037 21.4516C76.715 21.6247 78.4714 20.2102 79.9086 19.9603C81.7448 19.6411 82.5121 21.5011 83.3532 22.7009C83.6237 23.0868 83.8913 23.7651 84.3576 23.6961C87.3732 23.2494 91.1421 15.6065 93.8535 19.773L101.107 32.3372C101.522 33.846 101.715 35.6269 102.587 36.9138L95.2912 24.2774C97.0267 24.4258 101.216 19.2735 103.344 17.9788C105.886 16.4319 105.974 19.6353 107.956 19.8868C110.177 20.1686 111.952 17.7802 114.171 18.5281C115.178 18.8674 115.97 19.8724 116.821 20.3883C117.497 20.7983 120.45 22.242 121.476 22.5329C124.33 23.3418 126.659 23.3175 129.498 23.0011C129.799 22.9675 129.801 23.526 129.953 23.7885C130.613 24.9327 131.274 26.0769 131.935 27.2211C133.036 29.1281 134.137 31.0351 135.238 32.942C135.598 33.5654 135.957 34.1888 136.317 34.8121C136.469 35.0746 137.029 35.4385 136.772 35.5995C133.52 37.6382 126.917 34.7035 124.095 32.9871C123.201 32.4437 122.487 31.484 121.449 31.1336C119.174 30.3655 117.467 32.7627 115.24 32.5035C113.941 32.3524 113.527 30.0251 111.964 30.2098C110.066 30.4341 109.573 31.002 107.834 32.4741C102.489 36.9986 105.174 37.2446 102.587 36.9138L95.2912 24.2774C94.4345 23.0313 94.2565 21.2484 93.8535 19.773L101.107 32.3372C98.3477 28.1283 94.5325 35.833 91.6586 36.3419C91.1699 36.4284 90.8997 35.6863 90.6154 35.2795C90.0532 34.475 89.4356 33.1084 88.3765 32.6695C86.2242 31.7776 84.5164 34.3126 82.4894 34.0708C81.1248 33.9079 80.4401 32.3633 78.9939 32.2353C77.9108 32.1395 75.515 33.0011 74.7428 33.1033C72.6407 33.3813 71.6081 31.3754 69.7924 30.794C68.0993 30.252 65.2339 32.2099 63.5458 32.6379C61.8109 33.0777 61.122 29.3373 59.2692 29.6665C57.4275 29.9937 55.3796 32.5076 53.5589 32.2027C52.5202 32.0287 51.8937 30.9763 50.8055 30.9026C49.833 30.8367 48.4527 31.8397 47.5897 31.2734L40.2781 18.6094C40.15 18.0508 40.176 17.6277 40.2126 17.0345L47.5204 29.692C47.4851 28.0933 46.0159 30.0314 45.6467 30.4611C44.2932 32.0366 43.1879 33.7331 41.6946 35.1965C41.235 35.6469 40.4684 36.5767 39.8054 35.9348L32.4976 23.2772C31.8685 21.5329 31.6161 19.6703 31.2898 17.8513L38.5637 30.45C37.8439 28.6318 36.5613 29.3828 35.131 30.2062C33.0282 31.4166 31.0319 33.0083 29.1764 34.5644C25.7273 37.4569 22.1007 40.4308 19.6045 44.2131C18.9788 45.1613 17.5427 47.6796 17.212 48.2746C17.1436 48.3977 16.1241 50.5282 15.9191 50.5984L8.58748 37.8998C10.7295 34.8421 12.4115 31.4678 14.6649 28.4833C18.2529 23.7315 22.0214 19.1084 25.1607 14.0397C27.2051 10.7388 29.1182 7.35386 31.1456 4.042C31.8929 2.82129 32.672 0.958371 33.7814 0L41.1269 12.7227C41.1336 13.1514 40.7156 13.4753 40.496 13.8435C39.3962 15.688 38.3422 17.5581 37.1826 19.3671C30.2583 30.1695 17.6779 32.0926 7.3403 38.4538C6.11692 36.3348 4.89354 34.2159 3.67015 32.0969Z" />
      <path
         id="shape8"
         transform="translate(203.203, 756.166)"
         fill="#000000"
         d="M3.67015 27.0507C2.44677 24.9317 1.22339 22.8128 0 20.6938C2.33311 19.5748 4.5224 17.305 6.46906 15.5981C9.87908 12.608 13.3643 9.77784 16.6692 6.66369C18.2866 5.13964 19.6954 3.4557 21.2402 1.86054C21.8411 1.23999 22.9281 -0.639648 23.2103 0.176837L30.5423 12.8763C30.0557 15.492 27.8066 18.302 26.5097 20.5964C23.0864 26.6532 20.1425 32.7583 17.2503 39.1134C16.1148 41.6084 15.0466 44.1404 13.9729 46.6636C13.9422 46.7358 13.1317 49.3445 12.8059 49.4735C12.5235 49.5854 12.5021 48.9474 12.3502 48.6843C11.6881 47.5374 11.0259 46.3905 10.3638 45.2436C9.26019 43.3321 8.15659 41.4206 7.053 39.5092C6.80242 39.0752 5.4996 37.4573 5.51509 36.8454C5.53261 36.1531 6.46232 34.5497 6.6813 34.0342C7.45757 32.2066 8.22721 30.3631 9.02571 28.5455C11.9682 21.8478 15.1275 15.498 18.6456 9.11439C20.0795 6.51245 22.6868 3.1868 23.2103 0.176837L30.5423 12.8763C30.276 12.0627 29.1062 13.8279 28.4964 14.4287C26.9124 15.9891 25.5441 17.7072 23.9292 19.2377C21.1056 21.9138 18.1245 24.3424 15.1849 26.8845C12.6659 29.0628 10.186 31.6565 7.3403 33.4076C6.11692 31.2886 4.89354 29.1697 3.67015 27.0507Z" />
      <path
         id="shape9"
         transform="translate(223.712, 770.549)"
         fill="#000000"
         d="M3.67157 27.5243C2.44771 25.4045 1.22386 23.2847 0 21.1649C2.72927 16.0012 6.39725 11.216 9.87498 6.51218C10.9979 4.99332 12.0365 3.41194 13.1716 1.90294C13.2612 1.78373 14.9163 -0.769544 14.9703 0.307493L22.2852 12.9773C21.1701 16.0027 19.4164 20.0371 19.8653 23.2816L12.5688 10.6435C17.0422 7.81725 21.4011 4.77804 25.9158 2.02755C27.8093 0.873972 29.9112 -0.504036 31.2291 1.91384L38.4705 14.4563C39.0093 15.5421 39.8642 16.6791 40.178 17.849C40.5411 19.2025 40.1186 21.3585 41.1231 22.4875L33.8226 9.84257C34.5805 9.9772 36.0585 10.02 36.8738 9.99391C37.4452 9.97562 38.2361 9.28284 38.8041 9.4988C40.2763 10.0585 41.1513 11.3202 42.5285 11.9907C44.1465 12.7786 47.2152 13.0147 48.9395 12.9716C50.7174 12.9271 52.2036 11.6306 53.9093 11.3107C55.5783 10.9978 56.8712 12.6705 58.5916 12.6527L65.8793 25.2755C64.1416 25.2963 62.8457 23.5897 61.1611 23.8713C59.4356 24.1598 57.9768 25.352 56.2232 25.5874C54.6161 25.8031 51.3379 25.1701 49.8201 24.6202C48.4235 24.1143 47.5462 22.6861 46.1033 22.1414C45.4819 21.9068 44.8197 22.4843 44.1732 22.6368C43.5733 22.7783 41.6389 22.6023 41.1231 22.4875L33.8226 9.84257C32.8685 8.82093 33.2648 6.55572 32.9158 5.27047C32.6013 4.11246 31.7623 2.98973 31.2291 1.91384L38.4705 14.4563C36.7125 11.304 33.1421 14.1551 31.0049 15.4242C27.0897 17.7489 23.432 20.4604 19.8653 23.2816L12.5688 10.6435C12.3666 7.22001 14.0605 3.59068 14.9703 0.307493L22.2852 12.9773C22.2853 12.1871 20.8779 13.7736 20.3788 14.3862C18.9964 16.0829 17.7905 17.9762 16.4951 19.7445C13.2884 24.1221 9.3079 28.8435 7.34314 33.8836C6.11928 31.7639 4.89543 29.6441 3.67157 27.5243Z" />
      <path
         id="shape10"
         transform="translate(276.844, 763.698)"
         fill="#000000"
         d="M0 1.16201C1.08482 -1.47857 2.36755 2.46613 3.01543 3.58829C4.30528 5.82238 5.59513 8.05646 6.88498 10.2906C7.04566 10.5689 8.35136 12.3556 8.23946 12.6366C8.05558 13.0983 7.48708 13.3875 7.34314 13.8807Z" />
      <path
         id="shape11"
         transform="translate(226.294, 713.912)"
         fill="#000000"
         d="M6.80296 10.4721C5.68109 8.52899 4.55923 6.58585 3.43736 4.64272C3.17704 2.67884 7.25531 -0.204808 8.72926 0.0177285C11.7427 0.472702 15.2167 3.08592 16.4798 5.85209L23.1594 17.4215C26.1756 22.7644 23.1129 26.0484 19.6508 30.2126C17.6003 32.679 15.5226 35.0942 13.082 37.1948C-82.1672 119.175 47.7593 7.20929 8.72666 40.9268C8.50328 41.1198 7.08283 42.5621 6.73157 42.4815L0 30.8221C0.541685 29.9186 1.0542 28.9842 1.84816 28.2744C6.66802 23.9657 12.5521 27.9549 16.9341 30.6423L23.6182 42.2195C19.0046 39.3669 13.6393 35.7449 8.54104 39.8668C7.71072 40.5382 7.18313 41.5315 6.73157 42.4815L0 30.8221C0.331566 31.0113 1.85176 29.5346 2.05056 29.3635C155.07 -102.319 -372.969 351.8 6.40203 25.6248C8.85173 23.5186 10.9156 21.1152 12.9685 18.6386C16.2642 14.6628 19.4384 11.123 16.4798 5.85209L23.1594 17.4215C21.9109 14.6448 18.4102 12.0448 15.4175 11.6021C13.471 11.3141 10.1167 14.4815 10.1686 16.3015C9.0467 14.3584 7.92483 12.4153 6.80296 10.4721Z" />
      <path
         id="shape12"
         transform="translate(253.178, 716.638)"
         fill="#000000"
         d="M19.34 6.12286C20.4619 8.06599 21.5838 10.0091 22.7057 11.9523C21.3743 13.4328 20.5607 15.6905 19.6656 17.4494C16.8981 22.8874 15.0841 28.8143 12.6943 34.4203C12.5202 34.8289 12.3462 35.2376 12.1602 35.6409C11.4621 37.1542 8.61434 44.3339 6.84826 40.3738L0.152094 28.7757C-0.0400709 28.0969 0.257097 25.5933 1.30833 25.8239C2.54487 26.0952 3.82407 28.4358 4.56206 29.3677C6.81264 32.2097 10.2797 34.4236 13.8481 32.3749C22.3448 27.4969 27.4485 13.0963 22.5962 4.48946L29.2643 16.0389C25.8194 10.3881 17.5861 10.7548 12.2991 13.3926C11.2889 13.8966 10.3982 14.4816 9.54973 15.2243C9.31156 15.4328 8.69571 16.2453 8.37911 16.3045C8.29314 16.3206 7.59884 14.9531 7.56422 14.8931C6.82434 13.6116 6.08445 12.3301 5.34457 11.0486C4.40252 9.4169 3.46048 7.78523 2.51844 6.15356C2.42683 5.99489 1.63727 4.93029 1.70355 4.74213C2.19382 3.35038 5.7111 1.78977 6.68053 1.34661C7.31423 1.05693 7.9751 0.805978 8.64399 0.609367C9.36171 0.398407 9.83414 0.339533 10.6354 0.22831C11.2621 0.141314 12.4118 0.00144211 13.0748 0.00468324C13.8114 0.00828369 15.1123 0.127933 15.8377 0.257124C18.666 0.760885 21.0734 2.0141 22.5962 4.48946L29.2643 16.0389C34.1623 24.7287 28.8898 39.0798 20.5305 43.9491C16.9758 46.0197 13.5032 43.7935 11.2485 40.949C10.5041 40.0099 9.2706 37.7498 8.02641 37.46C6.87647 37.1921 6.7188 39.7353 6.84826 40.3738L0.152094 28.7757C1.84933 32.7747 4.81449 25.5515 5.4952 24.0968C8.26819 18.1705 10.1262 11.8008 13.0154 5.92694C13.9303 4.06692 14.7069 1.933 15.9744 0.293451C17.0963 2.23659 18.2182 4.17972 19.34 6.12286Z" />
      <path
         id="shape13"
         transform="translate(277.126, 739.599)"
         fill="#000000"
         d="M15.3877 8.19405C16.5095 10.1372 17.6314 12.0803 18.7533 14.0234C18.9022 12.8983 16.3167 12.2619 15.7356 12.0996C11.9341 11.038 9.21914 11.397 7.23398 15.1893C6.55228 16.4915 6.53978 17.5743 7.36867 18.7749L0.69056 7.20809C1.47156 8.01798 2.28475 8.76233 3.33106 9.2097C4.07711 9.52868 4.88905 9.73632 5.68635 9.8758C6.232 9.97127 6.84809 10.0901 7.4052 10.0062C10.704 9.5098 9.95711 5.57996 12.6118 4.81507C15.1577 4.08149 17.9792 4.49065 20.578 3.98574C21.314 3.84273 22.7632 3.23306 23.162 4.2347L29.8708 15.8547C29.8275 16.8704 29.6732 17.7839 29.2648 18.7174C28.1651 21.2316 23.5965 27.8297 20.4678 23.5797L13.7555 11.9536C13.3204 11.0577 15.4525 12.0319 15.4553 12.0331C17.3099 12.8183 19.1817 13.3788 21.2089 13.5441C24.9588 13.8499 29.011 10.3943 31.5539 8.22425C32.3541 7.54132 33.9046 5.97434 33.1548 4.82829L39.8624 16.4461C38.7931 15.6751 36.8781 18.0132 37.3407 19.1091L30.6302 7.48616C33.5847 9.61511 38.9795 9.36748 42.2072 8.21278C42.702 8.03577 47.425 5.39876 48.2004 6.74855L54.9124 18.3742C54.8542 19.545 54.1853 20.5353 53.6565 21.55L46.93 9.89937C47.898 8.67448 50.5534 5.13931 51.7509 7.8348L58.4522 19.4419L58.4847 20.1816L51.7901 8.58624L51.7509 7.8348L58.4522 19.4419C57.4426 16.5873 54.4691 20.4106 53.6565 21.55L46.93 9.89937C47.6684 9.02382 48.1171 7.8781 48.2004 6.74855L54.9124 18.3742C54.0595 16.8894 49.4259 19.4709 48.8329 19.6888C45.5876 20.8814 40.3536 21.1796 37.3407 19.1091L30.6302 7.48616C30.0776 6.53594 32.1213 4.07602 33.1548 4.82829L39.8624 16.4461C40.731 17.4884 38.8378 19.2108 38.2234 19.7763C35.7541 22.0494 31.8236 25.1056 28.1729 25.1198C25.939 25.1284 23.8802 24.302 21.8532 23.5086C21.7454 23.4664 20.1097 22.8098 20.4678 23.5797L13.7555 11.9536C15.6278 14.6807 17.6064 13.145 19.2064 11.4341C21.2869 9.20934 23.0535 7.34955 23.162 4.2347L29.8708 15.8547C29.5167 14.4385 26.0933 15.7665 25.2682 15.8197C23.212 15.9521 20.0701 15.5644 18.2695 16.8496C16.4239 18.1668 17.5007 21.235 14.0845 21.5749C11.559 21.8262 9.0645 20.5304 7.36867 18.7749L0.69056 7.20809C-0.821105 5.04575 1.22245 0.987949 3.7479 0.235181C5.25155 -0.213017 6.88512 0.0615808 8.3885 0.381137C9.23968 0.562063 12.0644 1.02712 12.0221 2.36464C13.1439 4.30778 14.2658 6.25091 15.3877 8.19405Z" />
      <path
         id="shape14"
         transform="translate(237.234, 671.138)"
         fill="#000000"
         d="M13.0596 5.29946C12.0397 3.53297 11.0198 1.76649 9.99992 3.80484e-15C14.2899 0.193923 16.6195 1.11552 18.9921 4.84897L25.0689 15.3744C25.4795 16.5166 25.9092 17.6408 25.7808 18.8757C25.4324 22.225 21.0616 23.5706 18.2999 23.8325C17.1364 23.9429 16.0535 23.8337 14.9279 23.5038C14.4459 23.3625 13.5674 23.4637 13.5212 22.9635L7.40303 12.3665C8.3328 11.8704 9.80657 12.2199 10.7534 12.4462C13.7952 13.1731 16.2955 15.6223 17.8515 18.2146L23.9194 28.7246C24.6192 30.1639 25.3786 31.81 25.0976 33.4571C24.4555 37.2205 19.6853 39.7943 16.1757 39.7473C11.9658 39.691 7.68434 36.7124 6.07407 32.9292C4.04938 29.4223 2.02469 25.9155 0 22.4086C-0.126543 22.1894 0.253086 22.847 0.379629 23.0661C0.680169 23.5867 0.980709 24.1072 1.28125 24.6278C2.45177 26.6552 3.62229 28.6826 4.79282 30.71C5.09336 31.2306 5.3939 31.7511 5.69444 32.2717C5.82098 32.4908 6.20061 33.1484 6.07407 32.9292C5.43344 31.8196 4.79282 30.71 4.15219 29.6004C3.78047 28.9566 3.40875 28.3127 3.03703 27.6689C2.02469 25.9155 1.01234 24.162 0 22.4086C1.61022 26.1944 5.89485 29.1802 10.1058 29.2337C11.276 29.2486 12.4473 28.8252 13.5361 28.4459C18.6814 26.6537 19.9885 22.5977 17.8515 18.2146L23.9194 28.7246C22.319 26.0608 19.7106 23.5625 16.5584 22.9119C15.6914 22.7329 14.3213 22.4416 13.5212 22.9635L7.40303 12.3665C7.39074 12.6075 8.27898 12.7979 8.31604 12.8096C9.63191 13.2263 10.8528 13.4487 12.2292 13.3185C14.8799 13.0677 18.9125 11.9331 19.5946 8.97701C19.9345 7.50408 19.4877 6.22332 18.9921 4.84897L25.0689 15.3744C22.8923 11.9331 20.2065 10.2584 16.1192 10.5989C15.0993 8.83243 14.0794 7.06594 13.0596 5.29946Z" />
      <path
         id="shape15"
         transform="translate(271.48, 670.285)"
         fill="#000000"
         d="M26.6975 7.80969C27.717 9.57549 28.7365 11.3413 29.756 13.1071C23.0794 9.27352 14.5323 9.35961 9.73098 15.6666C7.93713 18.023 6.85818 20.7894 8.53472 23.5713L2.46506 13.0583C3.77636 14.5262 5.54497 15.8717 7.4845 16.3555C7.57053 16.377 10.1378 16.6918 9.87499 16.0742L15.9928 26.6705C14.7651 25.4291 12.0963 25.994 10.6941 26.5092C7.07793 27.8378 5.0435 33.2522 6.85716 36.5436L0.789432 26.034C3.18749 29.758 8.83876 30.7413 12.9379 29.8646C15.6581 29.2828 18.0752 27.8033 20.7942 27.2044C22.8319 26.7556 24.8081 26.5984 26.8792 26.7653C27.5991 26.8233 29.266 27.2077 29.8768 26.8181C30.286 26.557 29.6646 26.1391 29.47 25.9836L35.5542 36.5216C34.8412 36.0602 34.0786 35.8777 33.2448 35.7092C27.0326 34.4539 26.6224 41.4782 25.3944 46.1566C25.3478 46.3343 24.1401 51.014 23.9154 51.7954C23.5051 53.2217 22.9106 54.5801 22.0751 55.8102C21.6662 56.4122 20.8826 57.8512 20.4489 57.2669L14.341 46.6877C14.5033 44.8384 16.2488 43.0164 17.2354 41.5573C21.0886 35.8595 26.5105 30.2741 32.1428 26.1855C34.468 24.4975 36.968 23.3951 39.6411 22.396C40.5525 22.0553 41.47 21.7299 42.3716 21.3643C42.7176 21.2239 43.0475 21.0468 43.3811 20.8791C43.5358 20.8014 43.9588 20.4968 43.8111 20.5874L49.9353 31.1947C49.1132 31.4473 48.8059 32.4978 48.327 33.2122C47.5804 34.326 45.2595 37.7719 46.3793 39.1939L40.2841 28.6366C40.8856 29.0789 42.3236 28.4231 42.4571 28.874L48.5664 39.4557C45.615 45.2456 43.4125 51.3731 40.4554 57.1611C40.0311 57.9916 39.6223 58.8312 39.1551 59.6382C38.373 60.9893 35.5957 65.1994 34.2555 62.4435L28.1789 51.9184C27.6217 48.5281 29.7168 45.4858 31.4322 42.7637C36.3066 35.029 43.4043 29.0108 50.8513 23.8199C53.3273 22.094 55.9539 20.2298 58.6627 18.8929C60.6338 17.92 61.8031 17.3771 62.502 19.4693L68.5671 29.9743C68.6241 34.6802 67.2799 37.1251 64.289 40.4831C63.4218 41.4569 63.099 41.9893 61.8908 41.3548C61.6088 41.2066 59.9429 40.2448 60.2903 40.3567L54.1779 29.7697C55.2848 30.4814 57.0954 30.6086 58.3501 30.2333L64.4301 40.7642C63.1959 41.1065 61.3848 41.0611 60.2903 40.3567L54.1779 29.7697C53.8029 29.5963 56.3695 31.0725 56.4615 31.1045C57.1877 31.3572 57.8421 30.3767 58.2131 29.9594C61.2906 26.4973 62.3662 24.2457 62.502 19.4693L68.5671 29.9743C67.9243 27.9082 66.5856 28.4216 64.6761 29.3084C61.9458 30.5764 59.3352 32.5291 56.8742 34.2517C50.2308 38.902 43.0212 44.5272 38.5461 51.436C36.337 54.8464 33.8431 58.2181 34.2555 62.4435L28.1789 51.9184C29.6892 55.1498 33.1106 49.1223 33.7689 47.8916C37.0728 41.7155 39.4764 35.195 42.4571 28.874L48.5664 39.4557C48.481 38.9879 46.9668 39.6299 46.3793 39.1939L40.2841 28.6366C39.2154 27.2077 41.5357 23.8427 42.2622 22.7075C42.7339 21.9703 43.032 20.9861 43.8111 20.5874L49.9353 31.1947C49.9229 31.0213 49.6198 31.3409 49.4585 31.4056C47.7827 32.0782 48.9979 31.6149 47.0329 32.317C43.7982 33.4729 40.6071 34.8317 37.847 36.9162C32.3235 41.0876 27.1169 46.2831 23.2693 52.0082C22.2284 53.5569 20.6788 55.3487 20.4489 57.2669L14.341 46.6877C14.7711 47.2698 15.5886 45.881 15.9977 45.2839C16.8308 44.0677 17.4456 42.7248 17.8632 41.3126C18.0504 40.6794 18.7015 38.2047 18.9108 37.4199C20.2209 32.5059 20.4397 23.8017 27.1812 25.2125C27.9987 25.3835 28.7557 25.5439 29.47 25.9836L35.5542 36.5216C37.1671 37.8757 34.2415 37.3358 33.4343 37.2644C31.1577 37.0631 29.0801 37.1527 26.8344 37.6671C24.1249 38.2877 21.6994 39.7672 18.9746 40.3204C14.9304 41.1414 9.22762 40.2293 6.85716 36.5436L0.789432 26.034C-1.2363 22.3548 1.33769 16.9174 5.29054 15.7568C6.55947 15.3842 8.81316 15.0642 9.87499 16.0742L15.9928 26.6705C16.1909 27.1513 13.7881 26.9206 13.5506 26.8605C11.6215 26.3722 9.84216 25.0397 8.53472 23.5713L2.46506 13.0583C-0.905534 7.55529 6.36077 0.947182 11.3614 0.152765C15.436 -0.494528 20.0394 0.657527 23.639 2.51228C24.6585 4.27808 25.678 6.04388 26.6975 7.80969Z" />
      <path
         id="shape16"
         transform="translate(254.967, 626.061)"
         fill="#000000"
         d="M2.75368 18.3887C1.83579 16.7988 0.917894 15.209 0 13.6192C0.966664 13.6593 1.9331 12.1937 2.47577 11.5882C4.80979 8.98398 6.18118 5.84222 8.04333 2.91679C8.28771 2.53287 9.79408 -0.440547 10.5335 0.0803698L16.0368 9.61251C15.5935 12.5338 14.3078 15.2618 13.8506 18.1995C12.8777 24.4512 13.2279 30.7147 11.3532 36.8292C10.6999 38.9597 9.72371 40.9808 8.92628 43.0571C8.74652 43.5251 8.5058 45.1094 8.05656 45.4343C7.69599 45.6951 7.61157 44.6636 7.38907 44.2782C7.00104 43.6061 6.613 42.934 6.22497 42.2619C5.39728 40.8283 4.56959 39.3947 3.7419 37.9611C3.57556 37.673 2.55692 36.3859 2.58847 35.9633C2.68463 34.6754 3.94942 32.373 4.37198 31.3395C5.28203 29.1137 6.16904 26.8633 6.72949 24.5178C7.94391 19.4353 7.63596 14.0819 8.36012 8.91169C8.78302 5.89241 10.1646 3.08749 10.5335 0.0803698L16.0368 9.61251C15.2964 9.02002 13.7932 11.922 13.5059 12.3797C11.6621 15.3166 10.2603 18.4385 7.94037 21.0532C7.38095 21.6837 6.48096 23.1158 5.50736 23.1582C4.58946 21.5684 3.67157 19.9785 2.75368 18.3887Z" />
      <path
         id="shape17"
         transform="translate(277.82, 623.997)"
         fill="#000000"
         d="M2.75368 26.1609C1.83579 24.571 0.917894 22.9812 0 21.3914C1.81014 20.68 3.31357 18.378 4.46073 16.93C7.14913 13.5364 9.3267 9.9108 11.2818 6.04802C11.8945 4.83746 12.4643 3.61588 12.9884 2.36484C13.3129 1.59026 14.3495 0.68052 13.8574 0L19.3671 9.54313C15.8233 15.5396 13.5867 23.6535 11.6362 30.203C10.6692 33.4501 10.08 36.8164 9.09135 40.0622C9.08065 40.0974 8.58595 42.1723 8.17821 41.8609L2.67495 32.329C2.81342 29.3088 8.22789 18.5108 11.2341 25.2218L16.6966 34.6832C17.0175 35.2877 17.846 36.4123 17.5027 37.1309C16.7317 38.7452 10.9785 38.5877 12.4774 41.5409C12.658 41.8967 12.9377 42.252 13.1782 42.5808L7.69566 33.0847C8.80368 34.1659 11.1082 36.1474 12.7017 36.0606C13.8084 36.0004 13.992 34.2514 14.5213 33.2777C15.7596 30.9999 17.2235 28.9621 19.7311 28.0659C21.8089 27.3233 24.5106 27.8372 26.6794 28.0517C26.8719 28.0707 31.1507 28.4736 30.3031 27.2334L35.803 36.7594C34.1467 36.1221 32.0833 39.2358 31.516 40.3432C29.8751 43.5463 30.487 47.4224 29.8771 50.8553C29.6179 52.3147 28.7568 53.5398 27.9939 54.7693C26.9054 56.5235 24.0692 62.5392 22.026 58.5917L16.5631 49.1297C16.1437 46.7725 18.4271 44.2526 19.6315 42.5212C21.6431 39.6294 23.7231 36.23 26.5869 34.0695C26.6592 34.0149 28.8988 32.0327 29.2896 32.2242C29.5863 32.3697 29.8866 33.2583 30.056 33.5517C30.8636 34.9505 31.6712 36.3493 32.4788 37.7481C33.0628 38.7596 33.6467 39.771 34.2307 40.7825C34.2482 40.8128 34.7443 41.5843 34.7133 41.6184C33.5321 42.9203 31.5097 43.5245 30.29 44.9223C27.7353 47.8498 25.463 51.0677 23.3364 54.308C22.5001 55.5823 21.8011 57.048 22.026 58.5917L16.5631 49.1297C18.532 53.1099 21.5559 47.0697 22.569 45.3732C23.3091 44.134 24.1595 42.8514 24.4168 41.3987C25.0515 37.8148 24.3652 33.6336 26.3411 30.3801C26.8756 29.5 28.8949 26.735 30.3031 27.2334L35.803 36.7594C36.3485 37.524 33.8721 37.647 33.6517 37.6276C31.0367 37.3969 27.6888 36.533 25.171 37.4893C22.6841 38.4339 21.1917 40.4268 19.9724 42.7258C19.4488 43.7132 19.3063 45.5373 18.189 45.565C16.5736 45.6051 14.3102 43.6691 13.1782 42.5808L7.69566 33.0847C7.45341 32.753 7.17181 32.3948 6.9897 32.036C5.46339 29.0289 11.3878 29.3579 12.014 27.6242C12.2954 26.8452 11.5853 25.8825 11.2341 25.2218L16.6966 34.6832C15.4209 31.8312 14.0105 31.8906 11.8554 34.1146C10.0266 36.0018 8.36386 39.2745 8.17821 41.8609L2.67495 32.329C3.12983 32.6756 3.61951 30.6439 3.63137 30.6053C4.55604 27.5945 5.31603 24.4958 6.02384 21.4301C7.56547 14.7528 10.6771 6.14378 13.8574 0L19.3671 9.54313C19.6639 9.86532 19.0634 10.3655 18.885 10.7656C18.3015 12.0746 17.7126 13.3815 17.0716 14.6636C15.0172 18.7721 12.724 22.6996 9.87149 26.3093C8.68479 27.811 7.2617 30.0185 5.50736 30.9304C4.58946 29.3406 3.67157 27.7507 2.75368 26.1609Z" />
      <path
         id="shape18"
         transform="translate(320.669, 630.031)"
         fill="#000000"
         d="M2.75261 33.7807C1.83508 32.1915 0.917539 30.6023 0 29.013C2.83082 22.3343 5.63792 15.6608 9.25772 9.36836C10.4162 7.35452 11.4919 5.29156 12.6306 3.26641C12.7897 2.98335 14.6886 -0.243605 14.8017 0.148951L20.3006 9.67347C19.9585 11.4746 19.1517 13.7603 20.0726 15.4932L14.5965 6.00829C15.3603 7.14275 17.097 5.45435 17.6968 4.98555C18.201 4.59153 18.8325 3.49924 19.3024 3.93353L24.8082 13.4698C22.0623 19.9868 18.1386 26.3961 14.8594 32.6542C13.9196 34.4477 12.9954 36.244 12.1024 38.0615C11.8686 38.5373 11.8974 39.3001 11.4023 39.4896C11.3255 39.519 9.59302 36.3558 9.57577 36.3259C8.75037 34.8963 7.92497 33.4667 7.09956 32.037C6.93049 31.7442 5.92066 30.4716 5.94932 30.0447C6.08494 28.0254 8.50495 24.9665 9.41832 23.2299C11.7803 18.7392 14.1771 14.2682 16.4678 9.74048C17.4312 7.83616 18.654 5.96221 19.3024 3.93353L24.8082 13.4698C24.3589 13.0151 23.6668 14.0626 23.166 14.4596C22.5328 14.9616 20.8429 16.6499 20.0726 15.4932L14.5965 6.00829C13.6685 4.25595 14.5437 1.97325 14.8017 0.148951L20.3006 9.67347C20.2837 9.3059 18.3285 12.2868 18.0877 12.7185C16.9581 14.7433 15.8795 16.804 14.705 18.8034C11.0377 25.0465 7.78142 31.6652 5.50523 38.5484C4.58769 36.9592 3.67015 35.3699 2.75261 33.7807Z" />
      <path
         id="shape19"
         transform="translate(331.523, 632.794)"
         fill="#000000"
         d="M2.75368 26.5044C1.83579 24.9146 0.917894 23.3247 0 21.7349C2.64567 21.8447 5.2699 21.6831 7.77003 20.7913C8.0765 20.682 11.6683 18.8308 10.5246 19.4528L16.0176 28.967C14.3635 29.8361 8.88715 33.1131 10.2048 35.7532L4.71597 26.2463C6.49989 27.2715 10.2589 25.2786 11.9116 24.3083C17.9716 20.7503 23.2506 15.6899 26.6401 9.47445C27.4056 8.07066 28.7156 5.51585 29.3659 4.05417C29.8277 3.01631 30.2545 1.96278 30.6636 0.903068C30.981 0.0809657 31.1286 0.240533 30.8494 0L36.3564 9.53848C34.4004 13.0745 33.159 16.8001 31.4531 20.4357C30.0678 23.3882 28.3605 26.1469 26.9313 29.0653L21.4292 19.5355C22.3619 18.5051 24.1665 15.2154 25.4161 17.8681C25.6248 18.3111 25.8169 18.7602 25.9908 19.2178L31.4275 28.6344C31.6156 29.5233 31.5475 31.8191 32.2838 32.4918L26.7955 22.9859C27.646 23.0165 29.1336 20.917 29.6287 20.3038C32.4092 16.8602 34.5172 12.5452 36.7574 8.74023C37.2694 7.87049 40.294 2.88688 40.6091 2.96718L46.1142 12.5023C44.1632 19.3685 40.3882 25.8239 37.6201 32.3992C36.5943 34.8356 34.5852 38.8792 35.8927 41.5139L30.4176 32.0307C28.9885 29.1765 31.3737 24.9172 32.3856 22.4836C35.063 16.0442 39.0402 9.79123 40.6091 2.96718L46.1142 12.5023C45.6488 12.1885 42.6502 17.2409 42.1498 18.0802C39.8865 21.8762 37.7316 26.1323 35.0274 29.6546C34.5408 30.2884 33.3469 32.5451 32.2838 32.4918L26.7955 22.9859C26.1642 22.4192 26.1604 20.0142 25.9908 19.2178L31.4275 28.6344C31.2638 28.1922 31.0791 27.7582 30.8795 27.331C29.6529 24.7056 27.7765 27.9223 26.9313 29.0653L21.4292 19.5355C26.0144 14.0526 27.6779 6.28926 30.8494 0L36.3564 9.53848C36.6554 9.65004 36.4159 9.54573 36.1101 10.3367C35.9057 10.8654 35.6994 11.3935 35.4819 11.9169C34.2827 14.8028 32.8329 17.6339 31.2017 20.3025C27.8518 25.783 22.7866 30.4155 17.3156 33.6685C15.767 34.5894 11.9923 36.7029 10.2048 35.7532L4.71597 26.2463C3.53282 24.4664 7.34901 21.6482 8.39821 20.8988C9.09455 20.4015 9.79911 19.9085 10.5246 19.4528L16.0176 28.967C17.2007 28.4666 13.5016 30.1405 13.2233 30.2366C10.6981 31.1087 8.15743 31.1584 5.50736 31.2739C4.58946 29.6841 3.67157 28.0943 2.75368 26.5044Z" />
      <path
         id="shape20"
         transform="translate(265.04, 579.074)"
         fill="#000000"
         d="M20.0034 4.2397C20.8193 5.65289 21.6352 7.06608 22.4511 8.47927C20.0313 8.38977 16.9911 10.3853 15.0744 11.7317C8.20062 16.56 1.11099 26.4879 6.70347 34.6984L1.84606 26.2852C3.44364 27.693 6.36933 29.3423 8.59641 29.0454C10.3261 28.8148 11.5409 26.8056 10.7024 25.2323L15.5672 33.6583C14.0371 31.865 6.73281 28.8832 5.89297 33.2564L1.00956 24.7981C2.10439 20.6298 9.01973 23.2323 10.7024 25.2323L15.5672 33.6583C16.5127 35.4315 14.8967 37.6027 12.9281 37.4645C10.6925 37.3075 8.35248 36.152 6.70347 34.6984L1.84606 26.2852C-3.84596 18.0683 3.4546 8.1411 10.2309 3.34246C12.2549 1.90917 15.0271 0.0978217 17.5557 0.000134875C18.3716 1.41332 19.1875 2.82651 20.0034 4.2397Z" />
      <path
         id="shape21"
         transform="translate(291.838, 577.611)"
         fill="#000000"
         d="M2.44677 33.6392C1.63118 32.2265 0.81559 30.8139 0 29.4013C1.9767 27.5862 3.47281 24.693 4.9661 22.5055C8.67537 17.072 11.8569 11.5536 14.9974 5.84676C15.5917 4.76681 18.038 1.21528 17.4097 0L22.3018 8.47337C21.435 8.57663 20.3765 11.8042 20.1643 12.3183C18.1685 17.1531 16.5566 22.357 15.3301 27.4207C15.1075 28.3399 14.4404 31.4073 14.2466 32.3328C13.8234 34.3543 12.1018 38.6815 13.9446 40.3823L9.07185 31.9424C11.3122 33.1363 14.1281 29.8736 15.4149 28.4009C17.2341 26.3188 18.5957 24.0011 20.2618 21.8408C22.9567 18.3463 25.8403 15.0052 28.3965 11.3934C29.6627 9.60435 30.8995 7.7511 32.1013 5.91823C32.5494 5.23475 32.9371 4.51303 33.3801 3.8262C33.5078 3.62824 33.8619 3.09268 33.8808 3.32749L38.7737 11.8023C35.3384 19.3019 33.3624 27.5474 30.7568 35.3777C29.8069 38.2323 29.2479 41.1845 28.6495 44.1285C28.5685 44.5269 28.2025 47.1778 27.6393 46.6369L22.7548 38.1767C23.3342 38.7107 24.1356 34.202 24.151 34.1297C24.6922 31.596 25.2579 29.109 26.0875 26.6548C28.7089 18.9011 30.7749 10.9 33.8808 3.32749L38.7737 11.8023C38.7495 11.5728 38.3671 12.0501 38.2389 12.2419C37.7861 12.9194 37.3999 13.6396 36.9523 14.3205C35.7501 16.1499 34.5101 17.9956 33.235 19.7746C30.659 23.3685 27.8614 26.7793 25.1048 30.2292C23.408 32.3527 22.0731 34.7198 20.2654 36.8022C18.9952 38.2654 16.1691 41.5671 13.9446 40.3823L9.07185 31.9424C7.25264 30.2862 9.01296 25.9532 9.42316 23.9783C10.7282 17.6951 12.4628 11.4633 14.7032 5.44321C15.2696 3.92113 15.8596 2.3563 16.6627 0.937874C16.746 0.79091 17.0946 0.0371837 17.4097 0L22.3018 8.47337C22.841 9.5338 20.9414 12.3055 20.3853 13.3143C17.8558 17.9029 15.3321 22.3336 12.4526 26.7707C11.8062 27.7668 10.4534 29.8374 9.77959 30.8428C8.24133 33.1378 6.77522 35.8317 4.89354 37.8771C4.07795 36.4645 3.26236 35.0518 2.44677 33.6392Z" />
      <path
         id="shape22"
         transform="translate(311.776, 601.984)"
         fill="#000000"
         d="M2.44771 4.23957C1.89694 3.2856 1.34616 2.33162 0.795388 1.37765C0.530259 0.918435 6.87889e-163 -3.97153e-163 0 0C3.72723e-163 1.23331e-162 0.611717 0.857324 1.03347 1.15621C1.95852 1.81176 2.93356 2.37737 3.96363 2.85229C7.11917 4.30717 10.8276 4.48838 13.903 2.68819L18.7685 11.1154C15.1073 13.0611 11.2316 12.6275 7.71885 10.7053C6.85475 10.2324 5.25362 9.54297 4.89543 8.47913C4.07952 7.06595 3.26362 5.65276 2.44771 4.23957Z" />
      <path
         id="shape23"
         transform="translate(335.376, 580.499)"
         fill="#000000"
         d="M5.70558 33.6136C4.88968 32.2004 4.07377 30.7872 3.25787 29.374C3.28088 28.359 4.33712 27.6539 4.89408 26.805C5.61953 25.6993 6.90059 23.6331 7.7243 22.3212C11.1194 16.9143 15.3311 11.9856 18.4308 6.39479C19.404 4.63956 21.2046 2.15907 21.2696 0.0666386L26.1491 8.5181C25.2949 8.23651 24.8028 9.73208 24.2797 10.4637C23.1363 12.063 22.1101 13.7486 21.0628 15.4111C16.647 22.421 12.3865 29.4397 8.76893 36.9004C7.75855 38.9841 6.87327 41.212 5.7113 43.2263C5.4085 43.7512 4.60569 44.5111 5.00827 45.184L0.123867 36.7239C1.42715 36.9545 2.26931 36.3498 3.69908 35.8682C6.6288 34.8814 9.35582 33.3255 11.7264 31.3428C11.9376 31.1661 14.7696 28.1442 15.2701 28.1619C15.3966 28.1664 15.0452 29.1842 14.9954 29.3265L19.8503 37.7355C19.6228 38.2443 18.8005 39.3377 19.2694 39.7537L14.3791 31.2836C14.9665 30.7327 16.2603 28.5803 16.8585 29.8087L21.7342 38.2537C21.7822 38.5051 21.8102 38.7594 22.0061 38.9396L17.1228 30.4814C19.4683 30.8852 21.498 25.696 23.3227 28.8302C25.2611 32.2058 27.1401 35.6246 29.209 38.9225L24.3566 30.5179C25.5583 31.56 27.34 29.6625 28.6335 29.6211C29.2661 29.6009 29.6661 30.6505 30.1916 30.514C31.1199 30.2728 31.7946 28.7998 32.7512 28.7674C33.5269 28.7412 34.0859 29.7203 34.767 29.9571C35.4002 30.1773 36.3849 29.7926 36.9712 29.5993C38.5911 29.0653 40.0252 28.5454 41.7479 28.3574C42.0072 28.3292 43.1373 28.1381 43.3906 28.3386C44.205 28.9833 44.8788 30.9162 45.3912 31.8037C46.0016 32.8609 46.612 33.9181 47.2223 34.9753C47.4626 35.3914 47.7029 35.8076 47.9431 36.2238C48.0443 36.399 48.4464 36.7174 48.2466 36.7494C46.8947 36.9663 45.5119 36.8488 44.1319 37.1384C42.6691 37.4454 41.3809 38.3814 39.8474 38.4245C39.0021 38.4482 38.4649 37.1165 37.5783 37.206C36.5892 37.3059 35.9771 38.6981 35.068 38.9594C34.6893 39.0682 34.1485 38.2821 33.8265 38.119C33.4059 37.9058 32.8303 38.1463 32.4395 38.2925C31.5295 38.6327 30.1099 39.7326 29.209 38.9225L24.3566 30.5179C24.1117 30.1105 22.6879 27.7199 23.6535 29.4106C23.773 29.6197 23.8925 29.8289 24.0124 30.0378C24.2705 30.4875 24.5288 30.9371 24.7876 31.3865C25.9102 33.3358 27.0386 35.2819 28.1701 37.226C26.2959 34.022 24.2314 39.2807 22.0061 38.9396L17.1228 30.4814C16.9288 30.3069 16.9045 30.0547 16.8585 29.8087L21.7342 38.2537C21.1101 36.9875 19.813 39.1757 19.2694 39.7537L14.3791 31.2836C14.0272 31.0139 14.8389 29.6783 14.9954 29.3265L19.8503 37.7355C19.9395 37.5173 20.3732 36.6549 20.1543 36.6135C19.6851 36.5247 16.6948 39.5689 16.5479 39.697C14.2263 41.7205 11.4514 43.2618 8.5483 44.2673C7.1613 44.7477 6.30046 45.3434 5.00827 45.184L0.123867 36.7239C-0.268822 36.069 0.565283 35.3182 0.86025 34.824C2.04623 32.8371 2.93458 30.6062 3.93989 28.5362C7.55841 21.0854 11.8703 14.0942 16.2569 7.07795C16.9177 6.02104 18.5424 3.40189 19.4443 2.08092C19.9552 1.33259 20.4311 -0.276771 21.2696 0.0666386L26.1491 8.5181C25.9897 10.6085 24.2531 12.9055 23.2297 14.7127C19.7891 20.7881 15.3018 26.2148 11.6056 32.1334C11.1736 32.8251 8.12776 36.6385 8.1533 37.8531C7.33739 36.4399 6.52149 35.0268 5.70558 33.6136Z" />
      <path
         id="shape24"
         transform="translate(286.695, 536.264)"
         fill="#000000"
         d="M2.44771 19.0903C1.63181 17.6771 0.815906 16.264 0 14.8508C1.6541 13.5504 2.65505 11.7106 4.05823 10.1658C6.38126 7.60837 9.17242 5.58624 12.1839 3.93259C14.3046 2.76812 17.0806 0.641152 19.3511 0.00340268C19.4775 -0.032088 19.098 0.362016 19.0261 0.405769L23.9046 8.85563C19.0333 14.8014 14.4695 20.7553 10.8804 27.6003C9.86498 29.537 8.81445 31.4249 8.0941 33.4958C7.67762 34.693 7.28154 37.407 6.3588 38.3628C6.08436 38.647 5.96368 37.6784 5.76612 37.3362C5.42158 36.7395 5.07703 36.1427 4.73249 35.5459C3.96139 34.2103 1.10539 31.0412 1.71423 29.3711C5.81482 18.1226 11.8152 9.68334 19.0261 0.405769L23.9046 8.85563C23.9621 8.82777 24.3792 8.46265 24.2403 8.47823C23.7303 8.53546 22.406 9.51982 22.0027 9.72583C20.3371 10.5765 18.6732 11.4322 17.0349 12.3347C13.9875 14.0134 11.2927 15.9893 8.92227 18.5906C7.51467 20.1354 6.46822 21.9422 4.89543 23.3299C4.07952 21.9167 3.26362 20.5035 2.44771 19.0903Z" />
      <path
         id="shape25"
         transform="translate(313.627, 533.426)"
         fill="#000000"
         d="M16.5937 4.23957C17.4096 5.65276 18.2255 7.06595 19.0414 8.47913C19.0431 10.5646 18.0006 12.3343 17.0804 14.145C14.9716 18.2947 12.2877 22.1287 10.1869 26.2844C8.46265 29.6953 7.24059 34.2405 4.85503 37.2415C4.60917 37.5508 4.45992 36.5572 4.26237 36.215C3.91784 35.6183 3.57331 35.0215 3.22878 34.4248C2.49389 33.1519 1.759 31.8791 1.02411 30.6062C0.830529 30.2709 0.0179473 29.2828 0 28.8324C-0.0596285 27.3361 2.14947 24.7016 2.82267 23.3191C3.69818 21.5211 4.4665 19.6695 5.32613 17.8653C7.38823 13.5373 10.3021 9.65455 12.4215 5.35616C13.2961 3.5825 14.1885 2.02552 14.1459 3.04388e-15C14.9618 1.41319 15.7778 2.82638 16.5937 4.23957Z" />
      <path
         id="shape26"
         transform="translate(292.977, 528.233)"
         fill="#000000"
         d="M29.3019 11.0397C28.4863 9.62705 27.6707 8.21441 26.8551 6.80177C28.6526 3.73155 31.5041 0.674465 35.1563 0.0405164C36.2074 -0.141933 38.189 0.512213 38.857 0.701366C42.451 1.71905 45.9493 3.88792 47.7437 7.22152L52.5983 15.6299C54.8199 21.753 48.2661 25.1889 42.96 25.2673C41.7449 25.2853 38.957 25.3386 38.0546 24.342L33.1632 15.8698C33.4525 15.107 36.0378 15.5703 36.7977 15.688C40.2842 16.228 42.2359 18.4217 44.1029 21.1579L48.9594 29.5695C52.3132 37.6465 41.1988 42.5811 34.6983 43.5413C33.0951 43.7781 31.4602 43.9223 29.8425 44.0065C28.0319 44.1008 26.2305 44.0655 24.4336 43.8074C22.0297 43.4621 19.3976 42.9916 17.1637 42.0053C14.4927 40.8261 11.7764 39.5175 9.22618 38.1182C7.9159 37.3992 6.37501 35.7889 4.89546 35.3625L0 26.8833L0.783316 27.0183L5.64824 35.4447L4.89546 35.3625L0 26.8833C1.58609 27.641 2.87043 28.9957 4.43436 29.8185C7.02149 31.1795 9.6788 32.5117 12.3615 33.6877C14.6264 34.6805 17.1895 35.1254 19.6218 35.4728C21.4172 35.7293 23.2175 35.7625 25.0262 35.6655C30.4345 35.3754 36.6449 34.2516 40.8991 30.5278C44.1297 27.7001 45.8079 25.2908 44.1029 21.1579L48.9594 29.5695C47.07 26.8001 45.1321 24.6278 41.6596 24.1067C41.1219 24.026 38.3653 23.6462 38.0546 24.342L33.1632 15.8698C34.0428 16.901 36.8978 16.93 38.1037 16.8559C43.323 16.5353 50.0166 13.4784 47.7437 7.22152L52.5983 15.6299C50.8059 12.3004 47.2951 10.0834 43.6959 9.08259C43.0087 8.89149 41.0661 8.26833 40.0148 8.45559C36.436 9.093 33.3513 12.1237 31.7487 15.2776C30.9331 13.865 30.1175 12.4523 29.3019 11.0397Z" />
      <path
         id="shape27"
         transform="translate(329.545, 549.128)"
         fill="#000000"
         d="M2.44677 19.2738C1.63118 17.8612 0.815591 16.4485 0 15.0359C4.50391 10.6739 10.0733 6.81646 15.1152 3.09535C15.6611 2.6925 18.0527 0.90312 18.6007 0.503079C18.8549 0.317513 19.2756 -0.203064 19.4378 0.066592L24.3312 8.54219C22.6745 11.4896 20.5789 14.1716 18.9204 17.1208C18.0656 18.6408 17.2325 20.2758 18.1684 21.9549L13.3041 13.5298C14.7638 15.5972 18.0179 16.0638 20.1165 14.8274C21.8943 13.78 23.1425 11.9801 24.1042 10.2157C24.5923 9.32013 25.5294 7.87113 25.1232 6.74574L30.0068 15.2044C29.3951 14.6284 28.4654 16.4739 28.2799 16.9437C27.2707 19.4991 26.7106 21.3449 28.4007 23.5628L23.5424 15.1479C26.4166 17.7412 30.0561 14.9024 32.5814 12.9918C33.0851 12.6106 35.4572 10.2891 36.1002 10.6656L40.988 19.1313C40.5663 20.4824 40.0275 21.79 39.3718 23.0446L34.4854 14.5811C34.9842 13.5642 35.4763 12.5305 36.0258 11.5436C36.4142 10.846 36.8736 9.4024 37.2746 10.4462L42.1534 18.8965C42.2236 19.2124 42.2927 19.5094 42.4865 19.7734L37.6117 11.33C38.2238 11.9426 39.9823 11.2393 40.4101 11.1709C42.6033 10.8204 44.372 11.2935 46.5281 11.4857L51.3754 19.8814C49.2607 19.6427 47.363 19.1686 45.2701 19.5888C44.8841 19.6664 43.0783 20.3791 42.4865 19.7734L37.6117 11.33C37.396 11.036 37.3854 10.8506 37.2746 10.4462L42.1534 18.8965C41.832 17.79 41.1334 19.4894 40.8696 19.9333C40.2861 20.9155 39.8464 22.0043 39.3718 23.0446L34.4854 14.5811C35.2303 13.3705 35.7288 12.0334 36.1002 10.6656L40.988 19.1313C40.6009 18.8742 39.8378 19.5489 39.6588 19.6749C38.8934 20.2137 38.1607 20.7977 37.4105 21.3575C34.9442 23.198 31.2534 26.1515 28.4007 23.5628L23.5424 15.1479C21.8537 12.9342 22.4453 11.0575 23.426 8.53648C23.6057 8.07455 24.5244 6.14113 25.1232 6.74574L30.0068 15.2044C30.467 16.1981 29.343 17.8981 28.9513 18.6128C27.0704 22.0444 21.7697 26.9733 18.1684 21.9549L13.3041 13.5298C12.38 11.8876 13.175 10.2879 14.0721 8.72267C15.7557 5.7852 17.9431 3.10093 19.4378 0.066592L24.3312 8.54219C24.1684 8.27007 23.7123 8.72477 23.4523 8.90633C22.2671 9.73389 21.1192 10.6202 19.9532 11.4749C16.5647 13.9587 13.3593 16.572 10.1057 19.2185C8.42647 20.5844 6.33285 21.9472 4.89354 23.5117C4.07795 22.0991 3.26236 20.6865 2.44677 19.2738Z" />
      <path
         id="shape28"
         transform="translate(314.966, 496.791)"
         fill="#000000"
         d="M2.14275 27.104C1.4285 25.8669 0.71425 24.6298 0 23.3926C3.82947 23.5169 7.17014 22.4068 10.8296 21.2448C17.0486 19.2702 23.0752 17.0194 28.1871 12.8074C30.4629 10.9322 35.6313 5.94303 33.7064 2.69602L37.9765 10.0921C35.0455 6.24213 26.0779 6.35636 22.3166 9.31061C19.9266 11.1878 19.9237 14.9203 21.6056 17.3175L17.3402 9.92963C20.2609 12.7997 23.9848 12.231 27.4057 10.5639L31.671 17.9517C28.2552 19.6287 24.5135 20.1798 21.6056 17.3175L17.3402 9.92963C15.0236 6.6268 16.0856 2.7295 19.5724 1.06067C23.4896 -0.814129 30.9339 -0.947472 33.7064 2.69602L37.9765 10.0921C39.6103 12.8463 35.7572 17.3435 33.7321 19.1319C28.634 23.6339 22.6024 26.3159 16.1606 28.2934C12.0755 29.5474 8.51059 30.6729 4.2855 30.8153C3.57125 29.5782 2.857 28.3411 2.14275 27.104Z" />
      <path
         id="shape29"
         transform="translate(350.644, 497.047)"
         fill="#000000"
         d="M26.8246 7.42285C24.7723 7.35626 22.4586 9.12768 21.1088 10.4458C18.3332 13.1563 16.2261 16.1458 13.8786 19.1039C11.6495 21.9127 9.18149 24.3795 7.40878 27.5621C6.12008 29.8757 5.22961 32.3191 4.27435 34.7764L0 27.373C0.975132 24.9286 1.85154 22.4859 3.14651 20.1796C4.9139 17.0319 7.35134 14.4733 9.60615 11.704C11.8575 8.93893 13.8717 5.96331 16.4975 3.38394C18.039 1.86962 20.2375 0.0777335 22.5391 0.000147997Z" />
      <path
         id="shape30"
         transform="translate(360.783, 496.074)"
         fill="#000000"
         d="M9.02897 1.82433C12.6186 1.9408 16.0915 -1.98526 19.4626 1.44049C20.2805 2.27167 20.8824 3.22568 21.4546 4.22614L25.7203 11.6146C26.253 12.6931 26.6391 13.7534 26.787 14.9578C27.4674 20.4968 18.6108 22.209 15.012 22.6858C13.5454 22.8801 12.0705 23.0876 10.5867 23.058C8.81969 23.0226 6.97542 22.7675 5.47883 21.7754C3.33888 20.3567 2.40115 17.6815 1.14352 15.5032C1.03112 15.3085 -0.0845951 13.6311 0 13.5226C0.162927 13.3136 0.423912 13.8409 0.640457 13.9937C0.936545 14.2026 1.44735 14.5668 1.77078 14.7464C3.1091 15.4897 4.83655 15.6626 6.33533 15.6956C10.3167 15.7832 16.1702 15.0168 19.5662 12.5073C20.9304 11.4992 22.7434 9.40759 22.5195 7.56624C22.3729 6.36034 21.9828 5.30701 21.4546 4.22614L25.7203 11.6146C24.1138 8.80528 21.9499 6.80006 18.4725 7.59297C16.7726 7.98056 15.0981 9.2479 13.3145 9.24704Z" />
      <path
         id="shape31"
         transform="translate(367.028, 514.831)"
         fill="#000000"
         d="M5.07233 3.62023C7.79515 3.64095 10.2415 4.10201 12.9336 3.14827C13.6301 2.90149 15.5688 2.09682 14.823 1.17606L19.0962 8.57742C15.3754 5.65836 9.24292 7.52443 6.30036 10.732C5.06595 12.0775 3.57705 13.8438 4.75719 15.6456L0.485256 8.24645C4.87704 12.4156 11.3298 11.2944 16.1037 8.28806C17.8588 7.18281 19.3587 5.8826 20.8509 4.4453C20.9981 4.30352 22.8823 2.54111 22.6544 2.78857L26.9307 10.1953C25.6492 12.1806 24.4147 14.1972 23.096 16.1578C22.835 16.5458 20.5665 19.834 22.0041 17.5299C22.2037 17.21 22.4044 16.8907 22.6053 16.5716C22.8315 16.212 23.0603 15.8539 23.2897 15.4963L19.0334 8.1242C20.1454 6.40038 21.4906 4.79866 22.4923 3.01276C22.7783 2.50298 23.2804 0.836648 23.8627 0.626097C24.56 0.373996 25.3207 0.921318 25.9781 1.0324C27.0186 1.20819 28.468 0.803238 28.8895 1.92151L33.1589 9.3162C32.9899 12.1953 31.398 15.5978 29.9652 18.0712C29.414 19.0228 28.7977 19.9269 28.2707 20.8917C28.1729 21.0707 27.2093 22.5032 27.224 22.4123L22.9422 14.996C24.3959 11.7859 25.7334 8.5226 27.1855 5.31101C27.491 4.63516 28.3096 2.16588 29.0494 1.76583C30.001 1.25128 32.5818 2.81503 33.6476 2.9077C33.8121 2.92199 36.7422 2.49754 36.9311 2.73274L41.2142 10.1512C40.628 12.8458 38.4554 15.2884 37.0415 17.585C36.3376 18.7284 35.1138 20.5599 35.6339 22.0077L31.3603 14.6058C32.2875 15.4563 33.9785 14.0076 34.8227 13.4746C37.9666 11.4895 40.8562 8.88878 43.751 6.55035C44.5389 5.91389 46.894 4.42812 45.7169 3.39741L49.9898 10.7983C48.0813 10.024 46.7415 12.4086 46.1263 13.8799C45.0998 16.3349 42.5481 21.5442 44.2716 24.2484L40.0043 16.8573C40.9626 17.9648 42.5884 16.5177 43.2988 15.8671C45.4046 13.9383 46.9788 11.2156 48.8507 9.06189C49.2554 8.59626 52.2224 5.48052 52.0782 6.39287L56.3524 13.796C54.9222 17.1993 52.7974 20.0214 50.4981 22.9146C49.9099 23.6547 49.34 24.4175 48.7809 25.1801C48.7289 25.251 47.8128 26.7942 48.0077 26.0349L43.7321 18.6293C45.189 15.1315 46.5189 11.4967 48.2546 8.12263C48.6119 7.42807 50.3519 3.32264 51.6628 2.72047C52.8063 2.19523 54.1258 2.38831 55.3455 2.22739L59.6131 9.61901C58.3926 9.78163 57.082 9.59797 55.936 10.1219C54.5927 10.736 52.8958 14.7579 52.5133 15.499C50.7687 18.8788 49.4269 22.5099 48.0077 26.0349L43.7321 18.6293C43.4987 19.3797 44.4826 17.8386 44.5161 17.7933C45.0776 17.0344 45.645 16.2686 46.2365 15.5332C48.5702 12.6317 50.6991 9.84527 52.0782 6.39287L56.3524 13.796C56.5259 12.8868 53.5119 16.0036 53.1174 16.4521C51.1909 18.6427 49.5719 21.1258 47.5497 23.2299C46.8465 23.9616 45.2121 25.3434 44.2716 24.2484L40.0043 16.8573C38.2184 14.0576 41.0146 7.8126 42.4704 5.3857C43.2026 4.16492 44.1573 2.77428 45.7169 3.39741L49.9898 10.7983C51.1534 11.828 48.8088 13.3042 48.0172 13.9397C45.1168 16.2685 42.232 18.8813 39.0871 20.8608C38.3603 21.3183 36.4835 22.8468 35.6339 22.0077L31.3603 14.6058C30.8531 13.1732 32.0712 11.3299 32.774 10.1935C34.2084 7.87413 36.3383 5.45336 36.9311 2.73274L41.2142 10.1512C41.001 9.88059 38.1096 10.3166 37.9154 10.2997C36.8215 10.2047 34.3137 8.65854 33.3258 9.17263C32.5524 9.57507 31.7589 11.9941 31.4438 12.6867C29.9845 15.8949 28.4795 19.1177 27.224 22.4123L22.9422 14.996C22.9188 15.1239 23.9002 13.7014 24.0062 13.5055C24.5298 12.538 25.1453 11.6357 25.7002 10.6854C27.214 8.09298 28.5539 4.87533 28.8895 1.92151L33.1589 9.3162C32.8254 8.20072 31.0951 8.57102 30.2497 8.43097C29.5834 8.3206 28.8429 7.78335 28.1378 8.03077C27.5379 8.24128 27.0439 9.87587 26.7539 10.3939C25.7549 12.1785 24.4119 13.7826 23.2897 15.4963L19.0334 8.1242C18.8002 8.47554 18.5675 8.82723 18.3376 9.18075C18.1336 9.49455 17.9298 9.80846 17.7271 10.1232C16.28 12.3708 18.5144 9.23019 18.8289 8.76685C20.1567 6.81008 21.4121 4.8011 22.6544 2.78857L26.9307 10.1953C27.2115 9.92073 25.211 11.7162 25.1066 11.8164C23.7395 13.1281 22.3727 14.3856 20.7682 15.3992C15.8988 18.4753 9.33664 19.9924 4.75719 15.6456L0.485256 8.24645C-0.765588 6.36971 0.993397 4.50874 2.24586 3.1411C5.09025 0.0351457 11.3004 -1.57804 14.823 1.17606L19.0962 8.57742C19.8476 9.4765 17.8178 10.2997 17.2018 10.541C14.4509 11.6184 12.0485 10.8294 9.35783 11.0429Z" />
      <path
         id="shape32"
         transform="translate(396.093, 502.175)"
         fill="#000000"
         d="M2.14275 4.29649C1.4285 3.05937 0.714253 1.82225 0 0.585135C0.875804 0.648023 2.23442 -0.1241 2.87015 0C3.38768 0.101026 4.67724 3.12996 4.90499 3.52444C5.79397 5.0642 8.58123 7.7125 5.50821 7.96108C5.10285 7.99387 4.69196 7.99891 4.2855 8.00784C3.57125 6.77072 2.857 5.5336 2.14275 4.29649Z" />
      <path
         id="shape33"
         transform="translate(429.909, 578.651)"
         fill="#000000"
         d="M13.2796 2.65097C13.7897 3.53462 14.2999 4.41828 14.8101 5.30193C14.7391 10.3863 11.3885 17.765 8.13584 21.3516C6.74164 22.889 4.77847 24.0277 3.05184 25.1743L0 19.8884C1.35639 18.99 2.9004 18.1042 4.12952 17.0455C7.63364 14.0271 9.21457 9.64497 10.5516 5.38215C11.0953 3.64874 11.7736 1.84571 11.749 1.90331e-15C12.2592 0.883655 12.7694 1.76731 13.2796 2.65097Z" />
      <path
         id="shape34"
         transform="translate(435.555, 592.896)"
         fill="#000000"
         d="M1.53054 2.98419C1.02036 2.10054 0.51018 1.21688 0 0.333228C0.731005 0.384485 1.38796 0.00239337 2.10408 2.47222e-06C4.44338 -0.00780766 6.89519 0.560501 9.02099 1.50541L12.0699 6.78626C8.73281 5.29157 6.30269 5.65395 3.06107 5.63516C2.55089 4.7515 2.04071 3.86785 1.53054 2.98419Z" />
      <path
         id="shape35"
         transform="translate(417.805, 577.07)"
         fill="#000000"
         d="M14.0809 2.65097C14.591 3.53462 15.1012 4.41828 15.6114 5.30193C15.6039 5.84247 14.8417 6.6824 14.5787 7.16395C13.9148 8.37986 13.2165 9.58103 12.564 10.8025C9.64472 16.2675 6.9289 21.9833 3.04924 26.8487L0 21.5673C3.90631 16.7077 6.55545 10.9854 9.52497 5.53862C10.2867 4.14136 11.0431 2.73142 11.8342 1.35092C11.9253 1.19192 12.5536 0.243837 12.5503 1.90331e-15C13.0605 0.883655 13.5707 1.76731 14.0809 2.65097Z" />
      <path
         id="shape36"
         transform="translate(410.792, 582.729)"
         fill="#000000"
         d="M1.53054 18.1908C1.02036 17.3071 0.510179 16.4235 0 15.5398C1.00237 14.7343 1.70359 13.1528 2.35822 12.0806C3.92262 9.51807 5.0739 6.69602 6.30401 3.95578C6.55744 3.39123 7.48239 0.293868 8.0937 0C8.1189 -0.0121132 9.30055 2.09034 9.34572 2.16857C9.59925 2.6077 11.2589 4.69537 11.1327 5.26369C10.8463 6.55347 9.878 8.00644 9.33791 9.21083C8.10651 11.9568 6.97699 14.7902 5.40441 17.3567C4.74205 18.4377 4.03712 19.9987 3.06107 20.8417C2.55089 19.9581 2.04071 19.0744 1.53054 18.1908Z" />
      <path
         id="shape37"
         transform="translate(401.717, 584.946)"
         fill="#000000"
         d="M15.8605 5.56682C15.2916 5.55291 14.4864 7.48117 14.206 7.92029C12.6059 10.4258 10.8374 12.7932 9.20655 15.2737C8.99664 15.5929 7.6582 18.2356 7.21974 17.4478L4.16428 11.8942C3.72357 10.4961 4.01124 8.37702 4.39337 6.96616C4.46662 6.6957 4.95103 5.39199 4.68641 5.19843L7.74499 10.7577C7.34806 10.7839 6.87893 11.715 6.70767 12.0004C5.92704 13.3009 5.39533 14.2137 4.39089 15.2849C4.09074 15.605 3.45 16.8077 3.19636 16.025L0.140986 10.4716C0.0789079 9.79835 0.0446412 9.12532 0 8.45115L3.05746 14.0084C3.10361 14.6818 3.13341 15.3524 3.19636 16.025L0.140986 10.4716C0.354798 11.2692 1.06776 10.0286 1.33792 9.73581C2.32081 8.67054 2.91028 7.76677 3.66708 6.47035C3.83684 6.17953 4.29014 5.22402 4.68641 5.19843L7.74499 10.7577C7.94971 10.911 7.56239 12.0571 7.50554 12.2818C7.12085 13.8025 6.74079 15.9515 7.21974 17.4478L4.16428 11.8942C4.5897 12.6848 5.76466 10.3257 5.95828 10.0346C7.66816 7.46337 9.48862 4.97764 11.155 2.37477C11.5505 1.75685 12.0797 0.0197777 12.7987 0.00171072Z" />
      <path
         id="shape38"
         transform="translate(425.23, 538.1)"
         fill="#000000"
         d="M11.1933 27.5835C10.3986 27.9172 9.71491 28.698 8.90708 29.0671C6.69051 30.08 4.56635 28.5312 3.52371 26.6231L0.471415 21.3364C-0.658059 18.8368 0.592002 16.2533 2.08458 14.1993C4.98305 10.2108 8.83145 7.44668 12.1599 3.90092L15.2216 9.20402C12.524 10.9339 7.72884 11.4968 5.74369 8.13907L2.6877 2.84595C2.30607 1.95986 2.20379 0.951736 2.12903 0L5.18442 5.2921C5.25819 6.24727 5.36495 7.25498 5.74369 8.13907L2.6877 2.84595C4.53076 5.97186 9.64974 5.68263 12.1599 3.90092L15.2216 9.20402C11.9423 12.0983 8.32693 15.2272 5.71825 18.6896C4.01516 20.95 2.25226 23.7497 3.52371 26.6231L0.471415 21.3364C1.51499 23.2458 3.635 24.7875 5.85235 23.7762C6.69501 23.3918 7.3315 22.6726 8.13151 22.2804Z" />
      <path
         id="shape39"
         transform="translate(417.957, 546.683)"
         fill="#000000"
         d="M6.06203 5.30317C5.30209 6.15675 4.61345 7.18605 4.09833 8.18636C4.0127 8.35264 3.25259 10.0071 3.07339 9.73882L0.0134418 4.43883C-0.0100636 4.22752 0.0350157 4.02948 0.0640779 3.82085L3.12093 9.11548C3.09175 9.3292 3.05871 9.52173 3.07339 9.73882L0.0134418 4.43883C0.171041 4.70587 0.93917 3.10657 1.0446 2.8971C1.56522 1.86271 2.27642 0.898846 3.00025 0Z" />
      <path
         id="shape40"
         transform="translate(441.266, 513.097)"
         fill="#000000"
         d="M11.0184 11.8801C8.7767 11.7082 6.53131 13.7731 5.07241 15.1419C4.87728 15.3249 3.10747 17.0194 3.06047 16.9208L0 11.62C0.246747 10.5423 0.939857 9.39477 1.45388 8.43761C2.74551 6.03247 4.11905 4.01496 5.96886 2.05725C6.72886 1.25293 7.33735 0.294715 8.44974 0L11.506 5.29365C10.52 5.55073 10.03 6.26748 9.35997 6.98624C7.43159 9.05479 5.83244 11.1869 4.50568 13.7235C4.01926 14.6535 3.31058 15.8531 3.06047 16.9208L0 11.62C0.0400065 11.7037 2.24367 9.6435 2.48407 9.41638C3.83828 8.13697 5.9129 6.54051 7.95662 6.57692Z" />
      <path
         id="shape41"
         transform="translate(448.626, 536.466)"
         fill="none"
         stroke="#000000"
         stroke-width="1.41732529000"
         stroke-linecap="square"
         stroke-linejoin="miter"
         stroke-miterlimit="0.00000000000"
         d="M33.9933 0L0 0.142829" />
      <path
         id="shape42"
         transform="translate(461.722, 574.197)"
         fill="#000000"
         d="M6.08043 10.5501C5.23004 8.99219 3.2696 8.0957 2.29348 6.53293L0.460837 3.3587C-0.381191 1.73296 0.927715 -1.54451 2.35066 0.935205L4.18409 4.1108C4.54589 5.07307 4.46645 6.08972 3.46719 6.65162L1.63338 3.47536C2.64401 2.90617 2.72507 1.93434 2.35066 0.935205L4.18409 4.1108C2.81487 1.71292 1.40072 4.80269 2.29348 6.53293L0.460837 3.3587C1.43243 4.92095 3.39803 5.81721 4.24353 7.36848Z" />
      <path
         id="shape43"
         transform="translate(448.054, 573.564)"
         fill="#000000"
         d="M11.8413 1.59489C12.1474 2.12516 12.4536 2.65542 12.7597 3.18569C12.5924 3.15846 11.7972 4.10711 11.6338 4.28905C10.9141 5.09069 10.2337 5.92847 9.62431 6.81687C8.92824 7.8317 8.8588 8.60288 8.13982 7.42182C7.27841 5.96996 6.38354 4.52831 5.70622 2.97923L7.53947 6.15451C7.31273 5.80795 6.23731 7.63005 6.05177 7.66239C5.47692 7.76259 4.6782 5.76306 3.93713 5.76719C3.60266 5.76905 3.05108 5.4813 2.80588 5.66191C2.71919 5.72577 1.93738 6.76769 1.83651 6.57892L0 3.39799L0.00355835 3.36554L1.84008 6.54649L1.83651 6.57892L0 3.39799C0.107329 3.59899 0.784312 2.67214 0.893325 2.55632C1.09441 2.34267 1.85161 2.53584 2.13738 2.59518C2.75455 2.72334 3.7602 4.60321 4.23407 4.48049C4.59245 4.38768 5.4639 2.60002 5.70622 2.97923L7.53947 6.15451C9.145 9.26759 6.84016 5.22992 6.30837 4.24964C7.3533 5.96558 9.00219 2.01546 9.80567 1.12258C9.96555 0.944905 10.7717 -0.0216712 10.9228 0.00409643C11.229 0.534362 11.5351 1.06463 11.8413 1.59489Z" />
      <path
         id="shape44"
         transform="translate(451.164, 551.149)"
         fill="#000000"
         d="M7.7928 14.0454C6.19728 14.023 3.96406 11.6742 3.23576 10.3592L1.40779 7.19307C0.68671 5.56693 0.107402 3.74865 0.511205 1.96059C0.661713 1.29413 1.28219 -0.693958 2.0555 0.439804L3.88636 3.61095C4.25979 4.43555 4.80524 5.39793 4.66783 6.31836C4.20505 9.41821 -0.131225 12.9946 2.53428 16.257L0.702852 13.0848C2.62433 14.9165 7.30268 13.0804 5.94629 10.2143L7.77992 13.3903C7.67056 13.2588 7.56822 13.1161 7.41562 13.033L5.58223 9.85751C5.73494 9.94014 5.83707 10.083 5.94629 10.2143L7.77992 13.3903C9.13968 16.2658 4.43797 18.075 2.53428 16.257L0.702852 13.0848C-1.98357 9.79453 2.36657 6.28763 2.8355 3.14496C2.97302 2.22335 2.41563 1.23621 2.0555 0.439804L3.88636 3.61095C3.10372 2.4607 2.49681 4.44475 2.34122 5.13022C1.93444 6.92225 2.51424 8.72962 3.23576 10.3592L1.40779 7.19307C2.09002 8.42496 4.41446 10.8856 5.95573 10.8635Z" />
      <path
         id="shape45"
         transform="translate(443.951, 552.987)"
         fill="#000000"
         d="M7.44972 3.22127C6.84641 3.93044 5.50991 3.10191 4.78594 3.18738C4.01642 3.27823 3.80334 4.30706 3.19397 4.60265C2.77268 4.80701 2.36825 4.19788 1.83459 4.3606L0 1.18298C0.524493 1.02949 0.923476 1.62044 1.33546 1.43814C1.97482 1.15522 2.16721 0.106428 2.95123 0.00956908C3.63478 -0.0748773 5.05615 0.721039 5.61265 0.0393651Z" />
      <path
         id="shape46"
         transform="translate(453.061, 540.016)"
         fill="#000000"
         d="M8.18667 3.18219C7.61637 3.17418 6.70244 3.88847 6.19495 4.1388C4.24245 5.1019 0.452448 6.85719 2.2992 9.54744L0.466448 6.37302C1.20776 7.06295 2.19335 6.12016 2.25556 5.29844L4.0899 8.47561C4.02145 9.29514 3.03967 10.2396 2.2992 9.54744L0.466448 6.37302C-1.41942 3.67119 2.49306 1.90074 4.36615 0.971265C4.88029 0.716139 5.77422 0.00851323 6.3496 0.000292083Z" />
      <path
         id="shape47"
         transform="translate(446.489, 537.603)"
         fill="#000000"
         d="M7.12107 1.5908C7.42721 2.12106 7.73336 2.65133 8.03951 3.18159C6.81779 3.82743 5.31667 5.0048 4.32721 6.03789C3.98615 6.39399 3.46057 7.39682 2.93202 7.43356C2.33903 7.47479 2.06384 6.69672 1.83306 6.28328C-3.72075 -3.3362 3.4131 9.01999 1.25307 5.2787C1.14089 5.0844 1.02871 4.8901 0.916529 4.6958C0.611019 4.16664 0.30551 3.63749 0 3.10833C0.256976 3.56877 0.485648 4.22955 1.09774 4.25649C1.5651 4.27706 2.02122 3.38291 2.30066 3.0794C3.37847 1.90877 4.83711 0.768147 6.20262 1.14214e-15C6.50877 0.530266 6.81492 1.06053 7.12107 1.5908Z" />
      <path
         id="shape48"
         transform="translate(414.566, 600.84)"
         fill="#000000"
         d="M0 0L1.49406 3.35571" />
    </g>
  </g>
</svg>
